<svg xmlns="http://www.w3.org/2000/svg" xmlns:xlink="http://www.w3.org/1999/xlink" width="200" zoomAndPan="magnify" viewBox="0 0 150 44.999999" height="60" preserveAspectRatio="xMidYMid meet" version="1.0"><defs><g/></defs><g fill="currentColor" fill-opacity="1"><g transform="translate(40.129604, 29.171982)"><g><path d="M 6.5625 -11.796875 L 6.5625 -8.765625 C 6.5625 -8.609375 6.578125 -8.503906 6.609375 -8.453125 C 6.648438 -8.398438 6.710938 -8.375 6.796875 -8.375 C 6.867188 -8.375 6.953125 -8.40625 7.046875 -8.46875 C 7.140625 -8.539062 7.304688 -8.6875 7.546875 -8.90625 L 9.171875 -10.40625 C 9.398438 -10.613281 9.554688 -10.78125 9.640625 -10.90625 C 9.722656 -11.039062 9.765625 -11.160156 9.765625 -11.265625 C 9.765625 -11.410156 9.691406 -11.601562 9.546875 -11.84375 C 9.410156 -12.09375 9.34375 -12.28125 9.34375 -12.40625 C 9.34375 -12.757812 9.597656 -13.019531 10.109375 -13.1875 C 10.617188 -13.363281 11.414062 -13.453125 12.5 -13.453125 C 13.488281 -13.453125 14.203125 -13.351562 14.640625 -13.15625 C 15.085938 -12.96875 15.3125 -12.660156 15.3125 -12.234375 C 15.3125 -12.023438 15.257812 -11.851562 15.15625 -11.71875 C 15.0625 -11.582031 14.9375 -11.503906 14.78125 -11.484375 L 13.6875 -11.296875 C 13.65625 -11.285156 13.601562 -11.273438 13.53125 -11.265625 C 12.84375 -11.171875 12.1875 -10.820312 11.5625 -10.21875 L 10.875 -9.546875 C 10.800781 -9.492188 10.71875 -9.414062 10.625 -9.3125 C 10.40625 -9.113281 10.296875 -8.976562 10.296875 -8.90625 C 10.296875 -8.800781 10.394531 -8.609375 10.59375 -8.328125 C 10.800781 -8.046875 11.113281 -7.660156 11.53125 -7.171875 C 12.28125 -6.285156 12.992188 -5.46875 13.671875 -4.71875 C 14.359375 -3.96875 14.914062 -3.382812 15.34375 -2.96875 C 15.8125 -2.519531 16.359375 -2.210938 16.984375 -2.046875 C 17.078125 -2.023438 17.140625 -2.007812 17.171875 -2 C 17.390625 -1.914062 17.554688 -1.804688 17.671875 -1.671875 C 17.785156 -1.535156 17.84375 -1.375 17.84375 -1.1875 C 17.84375 -0.726562 17.59375 -0.410156 17.09375 -0.234375 C 16.601562 -0.0546875 15.609375 0.03125 14.109375 0.03125 L 13.5 0.03125 C 12.894531 0.03125 12.445312 -0.0390625 12.15625 -0.1875 C 11.863281 -0.332031 11.539062 -0.613281 11.1875 -1.03125 C 10.394531 -1.925781 9.503906 -2.992188 8.515625 -4.234375 C 7.523438 -5.472656 6.960938 -6.09375 6.828125 -6.09375 C 6.765625 -6.09375 6.71875 -6.0625 6.6875 -6 C 6.65625 -5.9375 6.640625 -5.816406 6.640625 -5.640625 L 6.640625 -4.5625 C 6.640625 -3.800781 6.664062 -3.257812 6.71875 -2.9375 C 6.769531 -2.625 6.859375 -2.414062 6.984375 -2.3125 C 7.066406 -2.25 7.210938 -2.164062 7.421875 -2.0625 C 7.972656 -1.8125 8.25 -1.484375 8.25 -1.078125 C 8.25 -0.617188 7.972656 -0.296875 7.421875 -0.109375 C 6.878906 0.0664062 5.882812 0.15625 4.4375 0.15625 C 3 0.15625 2.007812 0.0664062 1.46875 -0.109375 C 0.925781 -0.296875 0.65625 -0.617188 0.65625 -1.078125 C 0.65625 -1.453125 0.867188 -1.757812 1.296875 -2 C 1.722656 -2.238281 1.957031 -2.390625 2 -2.453125 C 2.09375 -2.585938 2.15625 -2.953125 2.1875 -3.546875 C 2.226562 -4.148438 2.25 -5.578125 2.25 -7.828125 L 2.25 -10.796875 C 2.25 -12.753906 2.222656 -14.0625 2.171875 -14.71875 C 2.128906 -15.382812 2.050781 -15.796875 1.9375 -15.953125 C 1.875 -16.035156 1.585938 -16.15625 1.078125 -16.3125 C 0.578125 -16.476562 0.328125 -16.765625 0.328125 -17.171875 C 0.328125 -17.378906 0.410156 -17.566406 0.578125 -17.734375 C 0.753906 -17.910156 1.023438 -18.082031 1.390625 -18.25 C 2.203125 -18.632812 3 -18.929688 3.78125 -19.140625 C 4.5625 -19.359375 5.222656 -19.46875 5.765625 -19.46875 C 6.140625 -19.46875 6.382812 -19.378906 6.5 -19.203125 C 6.625 -19.023438 6.6875 -18.648438 6.6875 -18.078125 C 6.6875 -17.867188 6.664062 -17.066406 6.625 -15.671875 C 6.582031 -14.273438 6.5625 -12.984375 6.5625 -11.796875 Z M 6.5625 -11.796875 "/></g></g></g><g fill="currentColor" fill-opacity="1"><g transform="translate(56.201274, 29.171982)"><g><path d="M 8.90625 -8.015625 L 8.90625 -9.25 C 8.90625 -10.09375 8.796875 -10.675781 8.578125 -11 C 8.367188 -11.320312 8.003906 -11.484375 7.484375 -11.484375 C 6.929688 -11.484375 6.320312 -11.15625 5.65625 -10.5 C 5.59375 -10.4375 5.546875 -10.394531 5.515625 -10.375 C 5.484375 -10.351562 5.4375 -10.3125 5.375 -10.25 C 4.457031 -9.382812 3.644531 -8.953125 2.9375 -8.953125 C 2.476562 -8.953125 2.117188 -9.078125 1.859375 -9.328125 C 1.597656 -9.578125 1.46875 -9.914062 1.46875 -10.34375 C 1.46875 -11.257812 2.09375 -12.0625 3.34375 -12.75 C 4.59375 -13.4375 6.132812 -13.78125 7.96875 -13.78125 C 9.800781 -13.78125 11.140625 -13.425781 11.984375 -12.71875 C 12.835938 -12.019531 13.265625 -10.90625 13.265625 -9.375 C 13.265625 -8.914062 13.242188 -8.328125 13.203125 -7.609375 C 13.171875 -6.898438 13.15625 -6.421875 13.15625 -6.171875 L 13.15625 -4.265625 C 13.15625 -3.878906 13.175781 -3.601562 13.21875 -3.4375 C 13.257812 -3.269531 13.335938 -3.148438 13.453125 -3.078125 C 13.546875 -3.003906 13.828125 -2.894531 14.296875 -2.75 C 14.765625 -2.601562 15 -2.367188 15 -2.046875 C 15 -1.734375 14.882812 -1.4375 14.65625 -1.15625 C 14.425781 -0.875 14.078125 -0.597656 13.609375 -0.328125 C 13.222656 -0.0976562 12.832031 0.0703125 12.4375 0.1875 C 12.050781 0.3125 11.695312 0.375 11.375 0.375 C 10.894531 0.375 10.421875 0.128906 9.953125 -0.359375 C 9.484375 -0.859375 9.222656 -1.109375 9.171875 -1.109375 C 9.128906 -1.109375 9.007812 -1.035156 8.8125 -0.890625 C 7.6875 -0.046875 6.484375 0.375 5.203125 0.375 C 3.804688 0.375 2.691406 0 1.859375 -0.75 C 1.023438 -1.5 0.609375 -2.492188 0.609375 -3.734375 C 0.609375 -5.128906 1.140625 -6.21875 2.203125 -7 C 3.273438 -7.78125 4.769531 -8.171875 6.6875 -8.171875 C 7 -8.171875 7.335938 -8.15625 7.703125 -8.125 C 8.078125 -8.101562 8.476562 -8.066406 8.90625 -8.015625 Z M 8.875 -4.0625 L 8.875 -6.125 C 8.707031 -6.164062 8.539062 -6.195312 8.375 -6.21875 C 8.207031 -6.238281 8.015625 -6.25 7.796875 -6.25 C 7.003906 -6.25 6.394531 -6.066406 5.96875 -5.703125 C 5.539062 -5.347656 5.328125 -4.832031 5.328125 -4.15625 C 5.328125 -3.570312 5.484375 -3.113281 5.796875 -2.78125 C 6.109375 -2.445312 6.539062 -2.28125 7.09375 -2.28125 C 7.695312 -2.28125 8.144531 -2.425781 8.4375 -2.71875 C 8.726562 -3.007812 8.875 -3.457031 8.875 -4.0625 Z M 8.875 -4.0625 "/></g></g></g><g fill="currentColor" fill-opacity="1"><g transform="translate(70.4388, 29.171982)"><g><path d="M 0.78125 -9.53125 C 0.78125 -10.757812 1.1875 -11.75 2 -12.5 C 2.820312 -13.257812 3.898438 -13.640625 5.234375 -13.640625 C 5.554688 -13.640625 5.921875 -13.609375 6.328125 -13.546875 C 6.734375 -13.484375 6.976562 -13.453125 7.0625 -13.453125 C 7.21875 -13.453125 7.457031 -13.523438 7.78125 -13.671875 C 8.113281 -13.816406 8.367188 -13.890625 8.546875 -13.890625 C 8.710938 -13.890625 8.894531 -13.820312 9.09375 -13.6875 C 9.300781 -13.5625 9.492188 -13.394531 9.671875 -13.1875 C 10.023438 -12.6875 10.3125 -12.144531 10.53125 -11.5625 C 10.757812 -10.976562 10.875 -10.457031 10.875 -10 C 10.875 -9.65625 10.789062 -9.375 10.625 -9.15625 C 10.46875 -8.945312 10.253906 -8.84375 9.984375 -8.84375 C 9.765625 -8.84375 9.566406 -8.898438 9.390625 -9.015625 C 9.210938 -9.140625 9 -9.367188 8.75 -9.703125 C 8.675781 -9.785156 8.578125 -9.914062 8.453125 -10.09375 C 7.734375 -11.082031 7.003906 -11.578125 6.265625 -11.578125 C 5.953125 -11.578125 5.679688 -11.476562 5.453125 -11.28125 C 5.222656 -11.082031 5.109375 -10.84375 5.109375 -10.5625 C 5.109375 -9.988281 5.84375 -9.363281 7.3125 -8.6875 C 7.675781 -8.507812 7.960938 -8.367188 8.171875 -8.265625 C 9.316406 -7.722656 10.140625 -7.125 10.640625 -6.46875 C 11.148438 -5.8125 11.40625 -5.019531 11.40625 -4.09375 C 11.40625 -2.8125 10.914062 -1.742188 9.9375 -0.890625 C 8.96875 -0.046875 7.71875 0.375 6.1875 0.375 C 5.789062 0.375 5.34375 0.328125 4.84375 0.234375 C 4.34375 0.148438 4.039062 0.109375 3.9375 0.109375 C 3.800781 0.109375 3.59375 0.148438 3.3125 0.234375 C 3.039062 0.328125 2.835938 0.375 2.703125 0.375 C 2.503906 0.375 2.296875 0.304688 2.078125 0.171875 C 1.867188 0.0351562 1.691406 -0.144531 1.546875 -0.375 C 1.191406 -0.90625 0.910156 -1.457031 0.703125 -2.03125 C 0.492188 -2.613281 0.390625 -3.128906 0.390625 -3.578125 C 0.390625 -3.984375 0.484375 -4.316406 0.671875 -4.578125 C 0.867188 -4.835938 1.117188 -4.96875 1.421875 -4.96875 C 1.859375 -4.96875 2.375 -4.5 2.96875 -3.5625 C 3.15625 -3.289062 3.296875 -3.085938 3.390625 -2.953125 C 3.660156 -2.535156 4.035156 -2.207031 4.515625 -1.96875 C 5.003906 -1.726562 5.503906 -1.609375 6.015625 -1.609375 C 6.484375 -1.609375 6.859375 -1.710938 7.140625 -1.921875 C 7.421875 -2.140625 7.5625 -2.4375 7.5625 -2.8125 C 7.5625 -3.4375 6.660156 -4.203125 4.859375 -5.109375 L 4.71875 -5.1875 C 3.113281 -5.945312 2.054688 -6.628906 1.546875 -7.234375 C 1.035156 -7.847656 0.78125 -8.613281 0.78125 -9.53125 Z M 0.78125 -9.53125 "/></g></g></g><g fill="currentColor" fill-opacity="1"><g transform="translate(81.841738, 29.171982)"><g><path d="M 6.40625 -5.09375 C 6.40625 -4.019531 6.566406 -3.265625 6.890625 -2.828125 C 7.210938 -2.398438 7.753906 -2.1875 8.515625 -2.1875 C 9.347656 -2.1875 10.023438 -2.539062 10.546875 -3.25 C 11.078125 -3.957031 11.34375 -4.890625 11.34375 -6.046875 C 11.34375 -7.328125 11.066406 -8.347656 10.515625 -9.109375 C 9.960938 -9.878906 9.234375 -10.265625 8.328125 -10.265625 C 7.679688 -10.265625 7.195312 -10.070312 6.875 -9.6875 C 6.5625 -9.3125 6.40625 -8.738281 6.40625 -7.96875 Z M 6.40625 -12.625 L 6.40625 -12.15625 C 6.40625 -12.039062 6.414062 -11.957031 6.4375 -11.90625 C 6.46875 -11.851562 6.507812 -11.828125 6.5625 -11.828125 C 6.644531 -11.828125 6.8125 -11.941406 7.0625 -12.171875 C 8.101562 -13.109375 9.191406 -13.578125 10.328125 -13.578125 C 11.941406 -13.578125 13.304688 -12.929688 14.421875 -11.640625 C 15.535156 -10.359375 16.09375 -8.765625 16.09375 -6.859375 C 16.09375 -5.847656 15.914062 -4.90625 15.5625 -4.03125 C 15.21875 -3.164062 14.707031 -2.390625 14.03125 -1.703125 C 13.394531 -1.066406 12.679688 -0.582031 11.890625 -0.25 C 11.109375 0.0820312 10.304688 0.25 9.484375 0.25 C 8.523438 0.25 7.628906 -0.0195312 6.796875 -0.5625 C 6.648438 -0.65625 6.566406 -0.703125 6.546875 -0.703125 C 6.492188 -0.703125 6.453125 -0.632812 6.421875 -0.5 C 6.398438 -0.375 6.390625 -0.171875 6.390625 0.109375 C 6.390625 0.941406 6.40625 1.519531 6.4375 1.84375 C 6.46875 2.175781 6.53125 2.40625 6.625 2.53125 C 6.675781 2.601562 6.960938 2.753906 7.484375 2.984375 C 8.003906 3.210938 8.265625 3.515625 8.265625 3.890625 C 8.265625 4.328125 7.9375 4.640625 7.28125 4.828125 C 6.625 5.015625 5.535156 5.109375 4.015625 5.109375 C 2.671875 5.109375 1.726562 5.015625 1.1875 4.828125 C 0.65625 4.640625 0.390625 4.328125 0.390625 3.890625 C 0.390625 3.484375 0.671875 3.144531 1.234375 2.875 C 1.429688 2.769531 1.570312 2.6875 1.65625 2.625 C 1.8125 2.5 1.921875 2.015625 1.984375 1.171875 C 2.046875 0.328125 2.078125 -1.484375 2.078125 -4.265625 C 2.078125 -6.515625 2.035156 -8.023438 1.953125 -8.796875 C 1.878906 -9.578125 1.738281 -10.046875 1.53125 -10.203125 C 1.5 -10.222656 1.25 -10.304688 0.78125 -10.453125 C 0.3125 -10.597656 0.078125 -10.878906 0.078125 -11.296875 C 0.078125 -11.503906 0.164062 -11.695312 0.34375 -11.875 C 0.519531 -12.0625 0.78125 -12.238281 1.125 -12.40625 C 1.914062 -12.769531 2.703125 -13.054688 3.484375 -13.265625 C 4.265625 -13.472656 4.929688 -13.578125 5.484375 -13.578125 C 5.835938 -13.578125 6.078125 -13.507812 6.203125 -13.375 C 6.335938 -13.238281 6.40625 -12.988281 6.40625 -12.625 Z M 6.40625 -12.625 "/></g></g></g><g fill="currentColor" fill-opacity="1"><g transform="translate(98.131455, 29.171982)"><g><path d="M 2.3125 -5.3125 C 2.3125 -6.820312 2.253906 -7.96875 2.140625 -8.75 C 2.035156 -9.53125 1.878906 -10.007812 1.671875 -10.1875 C 1.628906 -10.207031 1.367188 -10.289062 0.890625 -10.4375 C 0.410156 -10.59375 0.171875 -10.878906 0.171875 -11.296875 C 0.171875 -11.503906 0.257812 -11.695312 0.4375 -11.875 C 0.613281 -12.0625 0.878906 -12.238281 1.234375 -12.40625 C 2.015625 -12.757812 2.804688 -13.039062 3.609375 -13.25 C 4.410156 -13.46875 5.082031 -13.578125 5.625 -13.578125 C 5.894531 -13.578125 6.101562 -13.523438 6.25 -13.421875 C 6.394531 -13.316406 6.492188 -13.144531 6.546875 -12.90625 C 6.597656 -12.65625 6.632812 -12.347656 6.65625 -11.984375 C 6.675781 -11.628906 6.742188 -11.453125 6.859375 -11.453125 C 6.992188 -11.453125 7.179688 -11.609375 7.421875 -11.921875 C 7.492188 -12.015625 7.550781 -12.082031 7.59375 -12.125 C 8 -12.644531 8.390625 -13.015625 8.765625 -13.234375 C 9.148438 -13.460938 9.5625 -13.578125 10 -13.578125 C 10.65625 -13.578125 11.175781 -13.347656 11.5625 -12.890625 C 11.957031 -12.429688 12.15625 -11.820312 12.15625 -11.0625 C 12.15625 -10.375 11.960938 -9.800781 11.578125 -9.34375 C 11.203125 -8.894531 10.734375 -8.671875 10.171875 -8.671875 C 9.703125 -8.671875 9.222656 -8.878906 8.734375 -9.296875 C 8.242188 -9.710938 7.894531 -9.921875 7.6875 -9.921875 C 7.3125 -9.921875 7.050781 -9.640625 6.90625 -9.078125 C 6.757812 -8.523438 6.6875 -7.335938 6.6875 -5.515625 C 6.6875 -4.296875 6.707031 -3.507812 6.75 -3.15625 C 6.800781 -2.800781 6.878906 -2.5625 6.984375 -2.4375 C 7.046875 -2.363281 7.320312 -2.21875 7.8125 -2 C 8.3125 -1.789062 8.5625 -1.484375 8.5625 -1.078125 C 8.5625 -0.617188 8.269531 -0.296875 7.6875 -0.109375 C 7.113281 0.0664062 6.054688 0.15625 4.515625 0.15625 C 3.054688 0.15625 2.054688 0.0664062 1.515625 -0.109375 C 0.972656 -0.296875 0.703125 -0.617188 0.703125 -1.078125 C 0.703125 -1.484375 0.976562 -1.8125 1.53125 -2.0625 C 1.738281 -2.164062 1.882812 -2.25 1.96875 -2.3125 C 2.09375 -2.40625 2.179688 -2.617188 2.234375 -2.953125 C 2.285156 -3.296875 2.3125 -4.082031 2.3125 -5.3125 Z M 2.3125 -5.3125 "/></g></g></g></svg>