<svg xmlns="http://www.w3.org/2000/svg" xmlns:xlink="http://www.w3.org/1999/xlink" width="130" zoomAndPan="magnify" viewBox="0 0 97.5 37.5" height="50" preserveAspectRatio="xMidYMid meet" version="1.0"><defs><g/><clipPath id="585d8c2980"><path d="M 8.773438 20.652344 L 14.117188 20.652344 L 14.117188 26.183594 L 8.773438 26.183594 Z M 8.773438 20.652344 " clip-rule="nonzero"/></clipPath><clipPath id="73ad198ab2"><path d="M 10.996094 20.652344 L 11.898438 20.652344 C 13.125 20.652344 14.117188 21.648438 14.117188 22.875 L 14.117188 23.957031 C 14.117188 25.183594 13.125 26.175781 11.898438 26.175781 L 10.996094 26.175781 C 9.769531 26.175781 8.773438 25.183594 8.773438 23.957031 L 8.773438 22.875 C 8.773438 21.648438 9.769531 20.652344 10.996094 20.652344 Z M 10.996094 20.652344 " clip-rule="nonzero"/></clipPath><clipPath id="eb11a014da"><path d="M 8.773438 14.34375 L 14.117188 14.34375 L 14.117188 19.875 L 8.773438 19.875 Z M 8.773438 14.34375 " clip-rule="nonzero"/></clipPath><clipPath id="d2cb865a5a"><path d="M 10.996094 14.34375 L 11.898438 14.34375 C 13.125 14.34375 14.117188 15.335938 14.117188 16.5625 L 14.117188 17.648438 C 14.117188 18.875 13.125 19.867188 11.898438 19.867188 L 10.996094 19.867188 C 9.769531 19.867188 8.773438 18.875 8.773438 17.648438 L 8.773438 16.5625 C 8.773438 15.335938 9.769531 14.34375 10.996094 14.34375 Z M 10.996094 14.34375 " clip-rule="nonzero"/></clipPath><clipPath id="0608137d80"><path d="M 8.773438 8.1875 L 14.117188 8.1875 L 14.117188 13.71875 L 8.773438 13.71875 Z M 8.773438 8.1875 " clip-rule="nonzero"/></clipPath><clipPath id="bb9641bdee"><path d="M 10.996094 8.1875 L 11.898438 8.1875 C 13.125 8.1875 14.117188 9.183594 14.117188 10.40625 L 14.117188 11.492188 C 14.117188 12.71875 13.125 13.710938 11.898438 13.710938 L 10.996094 13.710938 C 9.769531 13.710938 8.773438 12.71875 8.773438 11.492188 L 8.773438 10.40625 C 8.773438 9.183594 9.769531 8.1875 10.996094 8.1875 Z M 10.996094 8.1875 " clip-rule="nonzero"/></clipPath><clipPath id="4a26ea9961"><path d="M 14.957031 20.652344 L 20.300781 20.652344 L 20.300781 26.183594 L 14.957031 26.183594 Z M 14.957031 20.652344 " clip-rule="nonzero"/></clipPath><clipPath id="a7a3b64acb"><path d="M 17.179688 20.652344 L 18.082031 20.652344 C 19.308594 20.652344 20.300781 21.648438 20.300781 22.875 L 20.300781 23.957031 C 20.300781 25.183594 19.308594 26.175781 18.082031 26.175781 L 17.179688 26.175781 C 15.953125 26.175781 14.957031 25.183594 14.957031 23.957031 L 14.957031 22.875 C 14.957031 21.648438 15.953125 20.652344 17.179688 20.652344 Z M 17.179688 20.652344 " clip-rule="nonzero"/></clipPath><clipPath id="02e41f8a2b"><path d="M 14.957031 14.34375 L 20.300781 14.34375 L 20.300781 19.875 L 14.957031 19.875 Z M 14.957031 14.34375 " clip-rule="nonzero"/></clipPath><clipPath id="3505a4e797"><path d="M 17.179688 14.34375 L 18.082031 14.34375 C 19.308594 14.34375 20.300781 15.335938 20.300781 16.5625 L 20.300781 17.648438 C 20.300781 18.875 19.308594 19.867188 18.082031 19.867188 L 17.179688 19.867188 C 15.953125 19.867188 14.957031 18.875 14.957031 17.648438 L 14.957031 16.5625 C 14.957031 15.335938 15.953125 14.34375 17.179688 14.34375 Z M 17.179688 14.34375 " clip-rule="nonzero"/></clipPath><clipPath id="7512b3c896"><path d="M 2.800781 20.652344 L 8.144531 20.652344 L 8.144531 26.183594 L 2.800781 26.183594 Z M 2.800781 20.652344 " clip-rule="nonzero"/></clipPath><clipPath id="a9b94290aa"><path d="M 5.019531 20.652344 L 5.921875 20.652344 C 7.148438 20.652344 8.144531 21.648438 8.144531 22.875 L 8.144531 23.957031 C 8.144531 25.183594 7.148438 26.175781 5.921875 26.175781 L 5.019531 26.175781 C 3.792969 26.175781 2.800781 25.183594 2.800781 23.957031 L 2.800781 22.875 C 2.800781 21.648438 3.792969 20.652344 5.019531 20.652344 Z M 5.019531 20.652344 " clip-rule="nonzero"/></clipPath></defs><g fill="currentColor" fill-opacity="1"><g transform="translate(24.652531, 25.701313)"><g><path d="M 4.9375 -8.875 L 4.9375 -6.59375 C 4.9375 -6.46875 4.945312 -6.382812 4.96875 -6.34375 C 5 -6.3125 5.046875 -6.296875 5.109375 -6.296875 C 5.160156 -6.296875 5.222656 -6.320312 5.296875 -6.375 C 5.367188 -6.425781 5.492188 -6.53125 5.671875 -6.6875 L 6.890625 -7.828125 C 7.066406 -7.984375 7.1875 -8.109375 7.25 -8.203125 C 7.3125 -8.296875 7.34375 -8.390625 7.34375 -8.484375 C 7.34375 -8.578125 7.289062 -8.71875 7.1875 -8.90625 C 7.082031 -9.09375 7.03125 -9.234375 7.03125 -9.328125 C 7.03125 -9.597656 7.21875 -9.796875 7.59375 -9.921875 C 7.976562 -10.046875 8.582031 -10.109375 9.40625 -10.109375 C 10.144531 -10.109375 10.679688 -10.035156 11.015625 -9.890625 C 11.347656 -9.753906 11.515625 -9.523438 11.515625 -9.203125 C 11.515625 -9.046875 11.476562 -8.914062 11.40625 -8.8125 C 11.332031 -8.707031 11.238281 -8.644531 11.125 -8.625 L 10.296875 -8.5 C 10.265625 -8.488281 10.222656 -8.484375 10.171875 -8.484375 C 9.660156 -8.398438 9.164062 -8.132812 8.6875 -7.6875 L 8.171875 -7.1875 C 8.117188 -7.132812 8.054688 -7.070312 7.984375 -7 C 7.828125 -6.851562 7.75 -6.75 7.75 -6.6875 C 7.75 -6.613281 7.820312 -6.46875 7.96875 -6.25 C 8.125 -6.039062 8.359375 -5.753906 8.671875 -5.390625 C 9.234375 -4.722656 9.769531 -4.109375 10.28125 -3.546875 C 10.800781 -2.984375 11.21875 -2.546875 11.53125 -2.234375 C 11.882812 -1.890625 12.296875 -1.660156 12.765625 -1.546875 C 12.835938 -1.523438 12.882812 -1.507812 12.90625 -1.5 C 13.070312 -1.4375 13.195312 -1.351562 13.28125 -1.25 C 13.375 -1.144531 13.421875 -1.023438 13.421875 -0.890625 C 13.421875 -0.546875 13.234375 -0.304688 12.859375 -0.171875 C 12.484375 -0.046875 11.734375 0.015625 10.609375 0.015625 L 10.15625 0.015625 C 9.695312 0.015625 9.359375 -0.0351562 9.140625 -0.140625 C 8.921875 -0.253906 8.675781 -0.460938 8.40625 -0.765625 C 7.8125 -1.441406 7.140625 -2.242188 6.390625 -3.171875 C 5.648438 -4.109375 5.226562 -4.578125 5.125 -4.578125 C 5.082031 -4.578125 5.050781 -4.554688 5.03125 -4.515625 C 5.007812 -4.472656 5 -4.382812 5 -4.25 L 5 -3.4375 C 5 -2.863281 5.015625 -2.457031 5.046875 -2.21875 C 5.085938 -1.976562 5.15625 -1.816406 5.25 -1.734375 C 5.3125 -1.691406 5.421875 -1.628906 5.578125 -1.546875 C 5.992188 -1.359375 6.203125 -1.113281 6.203125 -0.8125 C 6.203125 -0.46875 5.992188 -0.226562 5.578125 -0.09375 C 5.171875 0.0390625 4.425781 0.109375 3.34375 0.109375 C 2.257812 0.109375 1.507812 0.0390625 1.09375 -0.09375 C 0.6875 -0.226562 0.484375 -0.46875 0.484375 -0.8125 C 0.484375 -1.09375 0.644531 -1.320312 0.96875 -1.5 C 1.289062 -1.6875 1.46875 -1.800781 1.5 -1.84375 C 1.570312 -1.945312 1.625 -2.222656 1.65625 -2.671875 C 1.6875 -3.117188 1.703125 -4.1875 1.703125 -5.875 L 1.703125 -8.125 C 1.703125 -9.59375 1.679688 -10.578125 1.640625 -11.078125 C 1.609375 -11.578125 1.546875 -11.882812 1.453125 -12 C 1.410156 -12.0625 1.195312 -12.148438 0.8125 -12.265625 C 0.425781 -12.390625 0.234375 -12.601562 0.234375 -12.90625 C 0.234375 -13.0625 0.300781 -13.207031 0.4375 -13.34375 C 0.570312 -13.476562 0.773438 -13.601562 1.046875 -13.71875 C 1.660156 -14.007812 2.257812 -14.234375 2.84375 -14.390625 C 3.425781 -14.554688 3.921875 -14.640625 4.328125 -14.640625 C 4.609375 -14.640625 4.796875 -14.570312 4.890625 -14.4375 C 4.984375 -14.300781 5.03125 -14.019531 5.03125 -13.59375 C 5.03125 -13.4375 5.015625 -12.832031 4.984375 -11.78125 C 4.953125 -10.738281 4.9375 -9.769531 4.9375 -8.875 Z M 4.9375 -8.875 "/></g></g></g><g fill="currentColor" fill-opacity="1"><g transform="translate(36.736665, 25.701313)"><g><path d="M 6.6875 -6.03125 L 6.6875 -6.953125 C 6.6875 -7.585938 6.609375 -8.023438 6.453125 -8.265625 C 6.296875 -8.503906 6.019531 -8.625 5.625 -8.625 C 5.207031 -8.625 4.75 -8.378906 4.25 -7.890625 C 4.207031 -7.847656 4.171875 -7.816406 4.140625 -7.796875 C 4.117188 -7.773438 4.085938 -7.742188 4.046875 -7.703125 C 3.359375 -7.054688 2.742188 -6.734375 2.203125 -6.734375 C 1.867188 -6.734375 1.601562 -6.828125 1.40625 -7.015625 C 1.207031 -7.203125 1.109375 -7.457031 1.109375 -7.78125 C 1.109375 -8.46875 1.578125 -9.066406 2.515625 -9.578125 C 3.453125 -10.097656 4.609375 -10.359375 5.984375 -10.359375 C 7.367188 -10.359375 8.378906 -10.09375 9.015625 -9.5625 C 9.648438 -9.039062 9.96875 -8.203125 9.96875 -7.046875 C 9.96875 -6.703125 9.953125 -6.257812 9.921875 -5.71875 C 9.898438 -5.1875 9.890625 -4.828125 9.890625 -4.640625 L 9.890625 -3.203125 C 9.890625 -2.921875 9.90625 -2.710938 9.9375 -2.578125 C 9.96875 -2.453125 10.023438 -2.363281 10.109375 -2.3125 C 10.179688 -2.257812 10.390625 -2.175781 10.734375 -2.0625 C 11.085938 -1.957031 11.265625 -1.785156 11.265625 -1.546875 C 11.265625 -1.304688 11.179688 -1.078125 11.015625 -0.859375 C 10.847656 -0.648438 10.585938 -0.441406 10.234375 -0.234375 C 9.941406 -0.0664062 9.648438 0.0546875 9.359375 0.140625 C 9.066406 0.234375 8.796875 0.28125 8.546875 0.28125 C 8.191406 0.28125 7.835938 0.0976562 7.484375 -0.265625 C 7.128906 -0.640625 6.929688 -0.828125 6.890625 -0.828125 C 6.859375 -0.828125 6.769531 -0.773438 6.625 -0.671875 C 5.78125 -0.0351562 4.878906 0.28125 3.921875 0.28125 C 2.867188 0.28125 2.023438 0 1.390625 -0.5625 C 0.765625 -1.125 0.453125 -1.875 0.453125 -2.8125 C 0.453125 -3.863281 0.851562 -4.679688 1.65625 -5.265625 C 2.457031 -5.847656 3.582031 -6.140625 5.03125 -6.140625 C 5.257812 -6.140625 5.507812 -6.128906 5.78125 -6.109375 C 6.0625 -6.085938 6.363281 -6.0625 6.6875 -6.03125 Z M 6.671875 -3.0625 L 6.671875 -4.59375 C 6.546875 -4.625 6.421875 -4.648438 6.296875 -4.671875 C 6.171875 -4.691406 6.023438 -4.703125 5.859375 -4.703125 C 5.265625 -4.703125 4.804688 -4.566406 4.484375 -4.296875 C 4.171875 -4.023438 4.015625 -3.632812 4.015625 -3.125 C 4.015625 -2.6875 4.128906 -2.34375 4.359375 -2.09375 C 4.597656 -1.84375 4.921875 -1.71875 5.328125 -1.71875 C 5.785156 -1.71875 6.125 -1.828125 6.34375 -2.046875 C 6.5625 -2.265625 6.671875 -2.601562 6.671875 -3.0625 Z M 6.671875 -3.0625 "/></g></g></g><g fill="currentColor" fill-opacity="1"><g transform="translate(47.441723, 25.701313)"><g><path d="M 0.59375 -7.171875 C 0.59375 -8.085938 0.898438 -8.828125 1.515625 -9.390625 C 2.128906 -9.960938 2.9375 -10.25 3.9375 -10.25 C 4.175781 -10.25 4.445312 -10.222656 4.75 -10.171875 C 5.0625 -10.128906 5.25 -10.109375 5.3125 -10.109375 C 5.425781 -10.109375 5.609375 -10.160156 5.859375 -10.265625 C 6.109375 -10.378906 6.296875 -10.4375 6.421875 -10.4375 C 6.546875 -10.4375 6.6875 -10.390625 6.84375 -10.296875 C 7 -10.203125 7.140625 -10.070312 7.265625 -9.90625 C 7.535156 -9.539062 7.753906 -9.132812 7.921875 -8.6875 C 8.085938 -8.25 8.171875 -7.859375 8.171875 -7.515625 C 8.171875 -7.253906 8.109375 -7.046875 7.984375 -6.890625 C 7.867188 -6.734375 7.707031 -6.65625 7.5 -6.65625 C 7.34375 -6.65625 7.195312 -6.695312 7.0625 -6.78125 C 6.925781 -6.875 6.765625 -7.046875 6.578125 -7.296875 C 6.523438 -7.359375 6.453125 -7.457031 6.359375 -7.59375 C 5.816406 -8.332031 5.269531 -8.703125 4.71875 -8.703125 C 4.476562 -8.703125 4.269531 -8.625 4.09375 -8.46875 C 3.925781 -8.320312 3.84375 -8.144531 3.84375 -7.9375 C 3.84375 -7.507812 4.394531 -7.039062 5.5 -6.53125 C 5.769531 -6.394531 5.984375 -6.289062 6.140625 -6.21875 C 7.003906 -5.8125 7.625 -5.359375 8 -4.859375 C 8.382812 -4.367188 8.578125 -3.773438 8.578125 -3.078125 C 8.578125 -2.109375 8.207031 -1.304688 7.46875 -0.671875 C 6.738281 -0.0351562 5.800781 0.28125 4.65625 0.28125 C 4.351562 0.28125 4.015625 0.242188 3.640625 0.171875 C 3.265625 0.109375 3.035156 0.078125 2.953125 0.078125 C 2.859375 0.078125 2.707031 0.109375 2.5 0.171875 C 2.289062 0.242188 2.132812 0.28125 2.03125 0.28125 C 1.882812 0.28125 1.726562 0.226562 1.5625 0.125 C 1.40625 0.03125 1.273438 -0.101562 1.171875 -0.28125 C 0.898438 -0.675781 0.6875 -1.09375 0.53125 -1.53125 C 0.375 -1.96875 0.296875 -2.351562 0.296875 -2.6875 C 0.296875 -2.988281 0.367188 -3.238281 0.515625 -3.4375 C 0.660156 -3.632812 0.847656 -3.734375 1.078125 -3.734375 C 1.398438 -3.734375 1.785156 -3.382812 2.234375 -2.6875 C 2.367188 -2.476562 2.472656 -2.320312 2.546875 -2.21875 C 2.753906 -1.90625 3.035156 -1.65625 3.390625 -1.46875 C 3.753906 -1.289062 4.128906 -1.203125 4.515625 -1.203125 C 4.867188 -1.203125 5.148438 -1.285156 5.359375 -1.453125 C 5.578125 -1.617188 5.6875 -1.835938 5.6875 -2.109375 C 5.6875 -2.585938 5.007812 -3.164062 3.65625 -3.84375 L 3.546875 -3.890625 C 2.335938 -4.472656 1.539062 -4.992188 1.15625 -5.453125 C 0.78125 -5.910156 0.59375 -6.484375 0.59375 -7.171875 Z M 0.59375 -7.171875 "/></g></g></g><g fill="currentColor" fill-opacity="1"><g transform="translate(56.015482, 25.701313)"><g><path d="M 4.828125 -3.828125 C 4.828125 -3.023438 4.945312 -2.457031 5.1875 -2.125 C 5.425781 -1.800781 5.832031 -1.640625 6.40625 -1.640625 C 7.03125 -1.640625 7.539062 -1.90625 7.9375 -2.4375 C 8.332031 -2.96875 8.53125 -3.671875 8.53125 -4.546875 C 8.53125 -5.503906 8.320312 -6.269531 7.90625 -6.84375 C 7.488281 -7.425781 6.941406 -7.71875 6.265625 -7.71875 C 5.773438 -7.71875 5.410156 -7.570312 5.171875 -7.28125 C 4.941406 -7 4.828125 -6.566406 4.828125 -5.984375 Z M 4.828125 -9.5 L 4.828125 -9.140625 C 4.828125 -9.046875 4.832031 -8.976562 4.84375 -8.9375 C 4.863281 -8.90625 4.894531 -8.890625 4.9375 -8.890625 C 5 -8.890625 5.125 -8.976562 5.3125 -9.15625 C 6.09375 -9.863281 6.910156 -10.21875 7.765625 -10.21875 C 8.972656 -10.21875 10 -9.734375 10.84375 -8.765625 C 11.6875 -7.796875 12.109375 -6.59375 12.109375 -5.15625 C 12.109375 -4.394531 11.972656 -3.6875 11.703125 -3.03125 C 11.441406 -2.375 11.054688 -1.789062 10.546875 -1.28125 C 10.078125 -0.800781 9.546875 -0.4375 8.953125 -0.1875 C 8.359375 0.0625 7.75 0.1875 7.125 0.1875 C 6.40625 0.1875 5.734375 -0.015625 5.109375 -0.421875 C 5.003906 -0.492188 4.941406 -0.53125 4.921875 -0.53125 C 4.878906 -0.53125 4.847656 -0.476562 4.828125 -0.375 C 4.804688 -0.28125 4.796875 -0.128906 4.796875 0.078125 C 4.796875 0.703125 4.804688 1.140625 4.828125 1.390625 C 4.859375 1.640625 4.90625 1.8125 4.96875 1.90625 C 5.019531 1.957031 5.238281 2.066406 5.625 2.234375 C 6.019531 2.410156 6.21875 2.640625 6.21875 2.921875 C 6.21875 3.242188 5.96875 3.476562 5.46875 3.625 C 4.976562 3.769531 4.160156 3.84375 3.015625 3.84375 C 2.003906 3.84375 1.296875 3.769531 0.890625 3.625 C 0.492188 3.488281 0.296875 3.253906 0.296875 2.921875 C 0.296875 2.617188 0.503906 2.363281 0.921875 2.15625 C 1.066406 2.082031 1.175781 2.023438 1.25 1.984375 C 1.363281 1.878906 1.441406 1.507812 1.484375 0.875 C 1.535156 0.25 1.5625 -1.109375 1.5625 -3.203125 C 1.5625 -4.898438 1.53125 -6.039062 1.46875 -6.625 C 1.414062 -7.207031 1.3125 -7.554688 1.15625 -7.671875 C 1.132812 -7.691406 0.945312 -7.753906 0.59375 -7.859375 C 0.238281 -7.972656 0.0625 -8.1875 0.0625 -8.5 C 0.0625 -8.65625 0.125 -8.800781 0.25 -8.9375 C 0.382812 -9.070312 0.582031 -9.203125 0.84375 -9.328125 C 1.4375 -9.597656 2.023438 -9.8125 2.609375 -9.96875 C 3.203125 -10.132812 3.707031 -10.21875 4.125 -10.21875 C 4.382812 -10.21875 4.566406 -10.164062 4.671875 -10.0625 C 4.773438 -9.957031 4.828125 -9.769531 4.828125 -9.5 Z M 4.828125 -9.5 "/></g></g></g><g fill="currentColor" fill-opacity="1"><g transform="translate(68.263564, 25.701313)"><g><path d="M 1.734375 -4 C 1.734375 -5.132812 1.691406 -5.992188 1.609375 -6.578125 C 1.535156 -7.171875 1.414062 -7.53125 1.25 -7.65625 C 1.226562 -7.675781 1.035156 -7.742188 0.671875 -7.859375 C 0.316406 -7.972656 0.140625 -8.1875 0.140625 -8.5 C 0.140625 -8.65625 0.203125 -8.800781 0.328125 -8.9375 C 0.460938 -9.070312 0.660156 -9.203125 0.921875 -9.328125 C 1.515625 -9.597656 2.109375 -9.8125 2.703125 -9.96875 C 3.304688 -10.132812 3.8125 -10.21875 4.21875 -10.21875 C 4.425781 -10.21875 4.582031 -10.175781 4.6875 -10.09375 C 4.800781 -10.007812 4.878906 -9.878906 4.921875 -9.703125 C 4.960938 -9.515625 4.988281 -9.285156 5 -9.015625 C 5.019531 -8.742188 5.070312 -8.609375 5.15625 -8.609375 C 5.257812 -8.609375 5.398438 -8.722656 5.578125 -8.953125 C 5.628906 -9.023438 5.671875 -9.082031 5.703125 -9.125 C 6.015625 -9.507812 6.3125 -9.785156 6.59375 -9.953125 C 6.882812 -10.128906 7.191406 -10.21875 7.515625 -10.21875 C 8.003906 -10.21875 8.394531 -10.039062 8.6875 -9.6875 C 8.988281 -9.34375 9.140625 -8.882812 9.140625 -8.3125 C 9.140625 -7.800781 8.992188 -7.375 8.703125 -7.03125 C 8.421875 -6.6875 8.066406 -6.515625 7.640625 -6.515625 C 7.285156 -6.515625 6.925781 -6.671875 6.5625 -6.984375 C 6.195312 -7.304688 5.9375 -7.46875 5.78125 -7.46875 C 5.5 -7.46875 5.300781 -7.253906 5.1875 -6.828125 C 5.082031 -6.410156 5.03125 -5.515625 5.03125 -4.140625 C 5.03125 -3.234375 5.046875 -2.644531 5.078125 -2.375 C 5.109375 -2.113281 5.164062 -1.929688 5.25 -1.828125 C 5.300781 -1.773438 5.507812 -1.664062 5.875 -1.5 C 6.25 -1.34375 6.4375 -1.113281 6.4375 -0.8125 C 6.4375 -0.46875 6.21875 -0.226562 5.78125 -0.09375 C 5.351562 0.0390625 4.554688 0.109375 3.390625 0.109375 C 2.296875 0.109375 1.546875 0.0390625 1.140625 -0.09375 C 0.734375 -0.226562 0.53125 -0.46875 0.53125 -0.8125 C 0.53125 -1.113281 0.734375 -1.359375 1.140625 -1.546875 C 1.304688 -1.628906 1.414062 -1.691406 1.46875 -1.734375 C 1.570312 -1.804688 1.640625 -1.96875 1.671875 -2.21875 C 1.710938 -2.476562 1.734375 -3.070312 1.734375 -4 Z M 1.734375 -4 "/></g></g></g><g clip-path="url(#585d8c2980)"><g clip-path="url(#73ad198ab2)"><path fill="currentColor" d="M 8.773438 20.652344 L 14.117188 20.652344 L 14.117188 26.183594 L 8.773438 26.183594 Z M 8.773438 20.652344 " fill-opacity="1" fill-rule="nonzero"/></g></g><g clip-path="url(#eb11a014da)"><g clip-path="url(#d2cb865a5a)"><path fill="currentColor" d="M 8.773438 14.34375 L 14.117188 14.34375 L 14.117188 19.875 L 8.773438 19.875 Z M 8.773438 14.34375 " fill-opacity="1" fill-rule="nonzero"/></g></g><g clip-path="url(#0608137d80)"><g clip-path="url(#bb9641bdee)"><path fill="currentColor" d="M 8.773438 8.1875 L 14.117188 8.1875 L 14.117188 13.71875 L 8.773438 13.71875 Z M 8.773438 8.1875 " fill-opacity="1" fill-rule="nonzero"/></g></g><g clip-path="url(#4a26ea9961)"><g clip-path="url(#a7a3b64acb)"><path fill="currentColor" d="M 14.957031 20.652344 L 20.300781 20.652344 L 20.300781 26.183594 L 14.957031 26.183594 Z M 14.957031 20.652344 " fill-opacity="1" fill-rule="nonzero"/></g></g><g clip-path="url(#02e41f8a2b)"><g clip-path="url(#3505a4e797)"><path fill="currentColor" d="M 14.957031 14.34375 L 20.300781 14.34375 L 20.300781 19.875 L 14.957031 19.875 Z M 14.957031 14.34375 " fill-opacity="1" fill-rule="nonzero"/></g></g><g clip-path="url(#7512b3c896)"><g clip-path="url(#a9b94290aa)"><path fill="currentColor" d="M 2.800781 20.652344 L 8.144531 20.652344 L 8.144531 26.183594 L 2.800781 26.183594 Z M 2.800781 20.652344 " fill-opacity="1" fill-rule="nonzero"/></g></g></svg>